<?xml version="1.0" encoding="UTF-8" standalone="no"?>
<!-- Created with Inkscape (http://www.inkscape.org/) -->

<svg
   width="210mm"
   height="297mm"
   viewBox="0 0 210 297"
   version="1.1"
   id="svg1"
   inkscape:version="1.4.2 (ebf0e940d0, 2025-05-08)"
   sodipodi:docname="thermometer.svg"
   xmlns:inkscape="http://www.inkscape.org/namespaces/inkscape"
   xmlns:sodipodi="http://sodipodi.sourceforge.net/DTD/sodipodi-0.dtd"
   xmlns:xlink="http://www.w3.org/1999/xlink"
   xmlns="http://www.w3.org/2000/svg"
   xmlns:svg="http://www.w3.org/2000/svg">
  <sodipodi:namedview
     id="namedview1"
     pagecolor="#a7a7a7"
     bordercolor="#000000"
     borderopacity="0.25"
     inkscape:showpageshadow="2"
     inkscape:pageopacity="0.0"
     inkscape:pagecheckerboard="0"
     inkscape:deskcolor="#d1d1d1"
     inkscape:document-units="mm"
     inkscape:zoom="16"
     inkscape:cx="608.09375"
     inkscape:cy="456.125"
     inkscape:window-width="2560"
     inkscape:window-height="1371"
     inkscape:window-x="0"
     inkscape:window-y="0"
     inkscape:window-maximized="1"
     inkscape:current-layer="layer1" />
  <defs
     id="defs1">
    <inkscape:path-effect
       effect="construct_grid"
       id="path-effect9"
       is_visible="true"
       lpeversion="1"
       nr_x="1"
       nr_y="1" />
    <inkscape:path-effect
       effect="tiling"
       id="path-effect8"
       is_visible="true"
       lpeversion="1.3.1"
       unit="px"
       seed="1;1"
       lpesatellites=""
       num_rows="3"
       num_cols="3"
       gapx="0"
       gapy="0"
       offset="0"
       offset_type="false"
       scale="0"
       rotate="0"
       mirrorrowsx="false"
       mirrorrowsy="false"
       mirrorcolsx="false"
       mirrorcolsy="false"
       mirrortrans="false"
       shrink_interp="false"
       split_items="false"
       link_styles="false"
       interpolate_scalex="false"
       interpolate_scaley="true"
       interpolate_rotatex="false"
       interpolate_rotatey="true"
       random_scale="false"
       random_rotate="false"
       random_gap_y="false"
       random_gap_x="false"
       transformorigin="" />
    <inkscape:path-effect
       effect="clone_original"
       linkeditem=""
       id="path-effect7"
       is_visible="true"
       lpeversion="1"
       method="d"
       attributes=""
       css_properties=""
       allow_transforms="true" />
    <linearGradient
       id="linearGradient3"
       inkscape:collect="always">
      <stop
         style="stop-color:#ff0000;stop-opacity:1;"
         offset="0.12592347"
         id="stop3" />
      <stop
         style="stop-color:#0001ff;stop-opacity:1;"
         offset="1"
         id="stop4" />
    </linearGradient>
    <linearGradient
       inkscape:collect="always"
       xlink:href="#linearGradient3"
       id="linearGradient4"
       x1="104.80807"
       y1="124.94177"
       x2="104.80807"
       y2="98.75573"
       gradientUnits="userSpaceOnUse"
       gradientTransform="matrix(12881.393,0,0,1,-1332129.5,-225.18378)" />
  </defs>
  <g
     inkscape:label="Calque 1"
     inkscape:groupmode="layer"
     id="layer1">
    <rect
       style="fill:url(#linearGradient4);stroke:none;stroke-width:113.497;stroke-linecap:round;stroke-linejoin:round;stroke-dasharray:none;stroke-opacity:1"
       id="temperature"
       width="6.5953932"
       height="26.799921"
       x="-164.33496"
       y="-127.03457"
       ry="0"
       transform="scale(-1)" />
    <path
       d="m 156.27864,98.478173 v 30.313397 h 9.51724 V 98.478173 Z m 4.75836,1.756477 c 0.58035,-3.2e-4 1.0509,0.47023 1.05058,1.05059 v 19.98224 c 1.16069,0.43713 1.92911,1.54766 1.92908,2.78794 7e-5,1.64536 -1.33378,2.97922 -2.97914,2.97915 -1.64537,7e-5 -2.97922,-1.33378 -2.97915,-2.97915 -1.7e-4,-1.2406 0.76853,-2.35143 1.9296,-2.78846 v -19.98172 c -3.2e-4,-0.57976 0.46928,-1.05005 1.04903,-1.05059 z"
       style="fill:#ffffff;stroke-width:1.00529;stroke-linecap:round;stroke-linejoin:round"
       id="white-outline"
       sodipodi:nodetypes="cccccccccccccc" />
    <path
       d="m 161.03596,98.483394 c -1.53803,0 -2.79104,1.253007 -2.79104,2.791046 v 0.54053 5.2e-4 1.9389 5.1e-4 1.94097 a 0.5,0.5 0 0 0 0,5.2e-4 v 1.9389 a 0.5,0.5 0 0 0 0,5.1e-4 v 1.94097 a 0.5,0.5 0 0 0 0,5.2e-4 v 1.9389 a 0.5,0.5 0 0 0 0,5.1e-4 v 1.9389 a 0.5,0.5 0 0 0 0,5.2e-4 v 1.94097 a 0.5,0.5 0 0 0 0,5.1e-4 v 1.9389 a 0.5,0.5 0 0 0 0,5.2e-4 v 1.94097 a 0.5,0.5 0 0 0 0,5.1e-4 v 0.98599 c -1.19781,0.89376 -1.96684,2.25587 -1.96681,3.7636 -1e-5,2.62221 2.13564,4.7599 4.75785,4.75991 2.62221,0 4.75993,-2.13769 4.75992,-4.75991 3e-5,-1.50685 -0.77027,-2.86769 -1.96681,-3.76153 v -18.99212 c 0,-1.538042 -1.25508,-2.791046 -2.79311,-2.791046 z m 0,0.999939 c 1.00131,0 1.79317,0.789777 1.79317,1.791107 v 19.16368 a 0.50005,0.50005 0 0 0 0.23048,0.4222 c 1.08197,0.69085 1.73636,1.88406 1.73633,3.16777 1e-5,2.08178 -1.67821,3.75997 -3.75998,3.75997 -2.08177,0 -3.75792,-1.6782 -3.75791,-3.75997 -3e-5,-1.28371 0.6523,-2.47692 1.73426,-3.16777 a 0.50005,0.50005 0 0 0 0.23255,-0.4222 v -0.6599 h 0.89658 a 0.5,0.5 0 0 0 0.50023,-0.50023 0.5,0.5 0 0 0 -0.50023,-0.49971 h -0.89658 v -0.94155 h 0.89658 a 0.5,0.5 0 0 0 0.50023,-0.50023 0.5,0.5 0 0 0 -0.50023,-0.49971 h -0.89658 v -0.93947 h 0.89658 a 0.5,0.5 0 0 0 0.50023,-0.50023 0.5,0.5 0 0 0 -0.50023,-0.49971 h -0.89658 v -0.94155 h 0.89658 a 0.5,0.5 0 0 0 0.50023,-0.50023 0.5,0.5 0 0 0 -0.50023,-0.49971 h -0.89658 v -0.93947 h 0.89658 a 0.5,0.5 0 0 0 0.50023,-0.50023 0.5,0.5 0 0 0 -0.50023,-0.49971 h -0.89658 V 110.077 h 0.89658 a 0.5,0.5 0 0 0 0.50023,-0.50023 0.5,0.5 0 0 0 -0.50023,-0.49971 h -0.89658 v -0.94154 h 0.89658 a 0.5,0.5 0 0 0 0.50023,-0.50023 0.5,0.5 0 0 0 -0.50023,-0.49971 h -0.89658 v -0.93948 h 0.89658 a 0.5,0.5 0 0 0 0.50023,-0.50023 0.5,0.5 0 0 0 -0.50023,-0.49971 h -0.89658 v -0.94154 h 0.89658 a 0.5,0.5 0 0 0 0.50023,-0.49972 0.5,0.5 0 0 0 -0.50023,-0.50022 h -0.89658 v -0.93948 h 0.89658 a 0.5,0.5 0 0 0 0.50023,-0.49971 0.5,0.5 0 0 0 -0.50023,-0.50023 h -0.89658 v -0.0408 c 0,-1.00133 0.78977,-1.791107 1.7911,-1.791107 z"
       style="baseline-shift:baseline;display:inline;overflow:visible;opacity:1;vector-effect:none;stroke-linecap:round;stroke-linejoin:round;enable-background:accumulate;stop-color:#000000;stop-opacity:1"
       id="contour" />
  </g>
</svg>
